# xmcd
#
# Track frame offsets: 
#        150
#        17192
#        33715
#        54812
#        73120
#        92337
#        110100
#        128862
#        143302
#
# Disc length: 2163 seconds
#
# Revision: 5
# Processed by: cddbd v1.5.2PL0 Copyright (c) Steve Scherf et al.
# Submitted via: ExactAudioCopyFreeDBPlugin 1.0
#
DISCID=74087109
DTITLE=The Emotions - Come Into Our World
DYEAR=1979
DGENRE=Soul
TTITLE0=What's The Name Of Your Love?
TTITLE1=Cause I Love You
TTITLE2=Come Into My World
TTITLE3=On and On
TTITLE4=I Should Be Dancing
TTITLE5=Where Is Your Love?
TTITLE6=The Movie
TTITLE7=Layed Back
TTITLE8=Yes, I Am
EXTD=
EXTT0=
EXTT1=
EXTT2=
EXTT3=
EXTT4=
EXTT5=
EXTT6=
EXTT7=
EXTT8=
PLAYORDER=
